<mxfile host="app.diagrams.net" modified="2023-03-27T05:23:24.930Z" agent="Mozilla/5.0 (Windows NT 10.0; Win64; x64) AppleWebKit/537.36 (KHTML, like Gecko) Chrome/111.0.0.0 Safari/537.36 Edg/111.0.1661.54" etag="_xmNWVFNqrBieMyGB-B3" version="21.1.0" type="github">
  <diagram name="Page-1" id="c4acf3e9-155e-7222-9cf6-157b1a14988f">
    <mxGraphModel dx="2284" dy="1864" grid="1" gridSize="10" guides="1" tooltips="1" connect="1" arrows="1" fold="1" page="1" pageScale="1" pageWidth="850" pageHeight="1100" background="none" math="0" shadow="0">
      <root>
        <mxCell id="0" />
        <mxCell id="1" parent="0" />
        <mxCell id="0RFwIcLYO04Bj1ifUBIb-132" style="rounded=0;orthogonalLoop=1;jettySize=auto;html=1;exitX=0.25;exitY=0;exitDx=0;exitDy=0;endArrow=diamondThin;endFill=0;endSize=12;entryX=0.194;entryY=1.038;entryDx=0;entryDy=0;entryPerimeter=0;" parent="1" source="0RFwIcLYO04Bj1ifUBIb-25" target="0RFwIcLYO04Bj1ifUBIb-41" edge="1">
          <mxGeometry relative="1" as="geometry">
            <mxPoint x="620" y="-180" as="targetPoint" />
          </mxGeometry>
        </mxCell>
        <mxCell id="bzOQo8LtT85Y9c2L1Ar0-61" value="&lt;span style=&quot;font-size: 17px;&quot;&gt;管理&lt;/span&gt;" style="edgeLabel;html=1;align=center;verticalAlign=middle;resizable=0;points=[];" vertex="1" connectable="0" parent="0RFwIcLYO04Bj1ifUBIb-132">
          <mxGeometry x="0.3064" y="-3" relative="1" as="geometry">
            <mxPoint x="17" y="28" as="offset" />
          </mxGeometry>
        </mxCell>
        <mxCell id="bzOQo8LtT85Y9c2L1Ar0-66" value="&lt;font style=&quot;font-size: 17px;&quot;&gt;0..*&lt;/font&gt;" style="edgeLabel;html=1;align=center;verticalAlign=middle;resizable=0;points=[];" vertex="1" connectable="0" parent="0RFwIcLYO04Bj1ifUBIb-132">
          <mxGeometry x="0.6778" y="-1" relative="1" as="geometry">
            <mxPoint x="19" as="offset" />
          </mxGeometry>
        </mxCell>
        <mxCell id="bzOQo8LtT85Y9c2L1Ar0-67" value="&lt;font style=&quot;font-size: 17px;&quot;&gt;0..*&lt;/font&gt;" style="edgeLabel;html=1;align=center;verticalAlign=middle;resizable=0;points=[];" vertex="1" connectable="0" parent="0RFwIcLYO04Bj1ifUBIb-132">
          <mxGeometry x="-0.6444" y="-5" relative="1" as="geometry">
            <mxPoint x="15" as="offset" />
          </mxGeometry>
        </mxCell>
        <mxCell id="0RFwIcLYO04Bj1ifUBIb-25" value="employee" style="swimlane;fontStyle=1;align=center;verticalAlign=top;childLayout=stackLayout;horizontal=1;startSize=26;horizontalStack=0;resizeParent=1;resizeParentMax=0;resizeLast=0;collapsible=1;marginBottom=0;whiteSpace=wrap;html=1;" parent="1" vertex="1">
          <mxGeometry x="580" width="160" height="52" as="geometry" />
        </mxCell>
        <mxCell id="0RFwIcLYO04Bj1ifUBIb-26" value="id" style="text;strokeColor=none;fillColor=none;align=left;verticalAlign=top;spacingLeft=4;spacingRight=4;overflow=hidden;rotatable=0;points=[[0,0.5],[1,0.5]];portConstraint=eastwest;whiteSpace=wrap;html=1;" parent="0RFwIcLYO04Bj1ifUBIb-25" vertex="1">
          <mxGeometry y="26" width="160" height="26" as="geometry" />
        </mxCell>
        <mxCell id="0RFwIcLYO04Bj1ifUBIb-29" value="租户" style="swimlane;fontStyle=1;align=center;verticalAlign=top;childLayout=stackLayout;horizontal=1;startSize=26;horizontalStack=0;resizeParent=1;resizeParentMax=0;resizeLast=0;collapsible=1;marginBottom=0;whiteSpace=wrap;html=1;" parent="1" vertex="1">
          <mxGeometry x="260" y="-240" width="140" height="60" as="geometry" />
        </mxCell>
        <mxCell id="0RFwIcLYO04Bj1ifUBIb-55" style="rounded=0;orthogonalLoop=1;jettySize=auto;html=1;exitX=0.694;exitY=1.138;exitDx=0;exitDy=0;exitPerimeter=0;entryX=0.75;entryY=0;entryDx=0;entryDy=0;endArrow=diamondThin;endFill=0;endSize=12;" parent="1" source="0RFwIcLYO04Bj1ifUBIb-41" target="0RFwIcLYO04Bj1ifUBIb-25" edge="1">
          <mxGeometry relative="1" as="geometry">
            <mxPoint x="675.04" y="-122.98800000000006" as="sourcePoint" />
            <mxPoint x="1180" y="170" as="targetPoint" />
          </mxGeometry>
        </mxCell>
        <mxCell id="bzOQo8LtT85Y9c2L1Ar0-63" style="rounded=0;orthogonalLoop=1;jettySize=auto;html=1;exitX=0;exitY=0.25;exitDx=0;exitDy=0;endArrow=block;endFill=0;endSize=12;edgeStyle=orthogonalEdgeStyle;" edge="1" parent="1" source="0RFwIcLYO04Bj1ifUBIb-40">
          <mxGeometry relative="1" as="geometry">
            <mxPoint x="380" y="404" as="targetPoint" />
            <Array as="points">
              <mxPoint x="480" y="-159" />
              <mxPoint x="480" y="404" />
            </Array>
          </mxGeometry>
        </mxCell>
        <mxCell id="0RFwIcLYO04Bj1ifUBIb-40" value="organiztion" style="swimlane;fontStyle=1;align=center;verticalAlign=top;childLayout=stackLayout;horizontal=1;startSize=26;horizontalStack=0;resizeParent=1;resizeParentMax=0;resizeLast=0;collapsible=1;marginBottom=0;whiteSpace=wrap;html=1;" parent="1" vertex="1">
          <mxGeometry x="590" y="-172" width="160" height="52" as="geometry" />
        </mxCell>
        <mxCell id="0RFwIcLYO04Bj1ifUBIb-41" value="id" style="text;strokeColor=none;fillColor=none;align=left;verticalAlign=top;spacingLeft=4;spacingRight=4;overflow=hidden;rotatable=0;points=[[0,0.5],[1,0.5]];portConstraint=eastwest;whiteSpace=wrap;html=1;" parent="0RFwIcLYO04Bj1ifUBIb-40" vertex="1">
          <mxGeometry y="26" width="160" height="26" as="geometry" />
        </mxCell>
        <mxCell id="0RFwIcLYO04Bj1ifUBIb-111" value="租户" style="shape=umlFrame;whiteSpace=wrap;html=1;pointerEvents=0;" parent="1" vertex="1">
          <mxGeometry y="-280" width="440" height="200" as="geometry" />
        </mxCell>
        <mxCell id="0RFwIcLYO04Bj1ifUBIb-113" value="组织" style="shape=umlFrame;whiteSpace=wrap;html=1;pointerEvents=0;" parent="1" vertex="1">
          <mxGeometry x="520" y="-280" width="330" height="440" as="geometry" />
        </mxCell>
        <mxCell id="bzOQo8LtT85Y9c2L1Ar0-2" value="&lt;h1&gt;&lt;span style=&quot;background-color: initial; font-size: 12px; font-weight: normal;&quot;&gt;所有实体依赖租户&lt;/span&gt;&lt;br&gt;&lt;/h1&gt;" style="text;html=1;strokeColor=none;fillColor=none;spacing=5;spacingTop=-20;whiteSpace=wrap;overflow=hidden;rounded=0;" vertex="1" parent="1">
          <mxGeometry x="20" y="-240" width="190" height="120" as="geometry" />
        </mxCell>
        <mxCell id="bzOQo8LtT85Y9c2L1Ar0-4" value="用户" style="shape=umlFrame;whiteSpace=wrap;html=1;pointerEvents=0;" vertex="1" parent="1">
          <mxGeometry y="-40" width="450" height="200" as="geometry" />
        </mxCell>
        <mxCell id="bzOQo8LtT85Y9c2L1Ar0-16" value="用户名" style="swimlane;fontStyle=0;childLayout=stackLayout;horizontal=1;startSize=26;fillColor=none;horizontalStack=0;resizeParent=1;resizeParentMax=0;resizeLast=0;collapsible=1;marginBottom=0;whiteSpace=wrap;html=1;" vertex="1" parent="1">
          <mxGeometry x="20" width="140" height="61" as="geometry" />
        </mxCell>
        <mxCell id="bzOQo8LtT85Y9c2L1Ar0-21" style="rounded=0;orthogonalLoop=1;jettySize=auto;html=1;exitX=0.5;exitY=0;exitDx=0;exitDy=0;endArrow=none;endFill=0;startArrow=none;startFill=0;strokeWidth=1;targetPerimeterSpacing=0;endSize=12;startSize=12;entryX=0.5;entryY=1;entryDx=0;entryDy=0;" edge="1" parent="1" source="bzOQo8LtT85Y9c2L1Ar0-20" target="0RFwIcLYO04Bj1ifUBIb-29">
          <mxGeometry relative="1" as="geometry">
            <mxPoint x="50" y="-190" as="targetPoint" />
          </mxGeometry>
        </mxCell>
        <mxCell id="bzOQo8LtT85Y9c2L1Ar0-22" value="&lt;font style=&quot;font-size: 17px;&quot;&gt;1&lt;/font&gt;" style="edgeLabel;html=1;align=center;verticalAlign=middle;resizable=0;points=[];" vertex="1" connectable="0" parent="bzOQo8LtT85Y9c2L1Ar0-21">
          <mxGeometry x="0.743" y="3" relative="1" as="geometry">
            <mxPoint x="-17" y="7" as="offset" />
          </mxGeometry>
        </mxCell>
        <mxCell id="bzOQo8LtT85Y9c2L1Ar0-24" value="&lt;font style=&quot;font-size: 17px;&quot;&gt;1..*&lt;/font&gt;" style="edgeLabel;html=1;align=center;verticalAlign=middle;resizable=0;points=[];" vertex="1" connectable="0" parent="bzOQo8LtT85Y9c2L1Ar0-21">
          <mxGeometry x="-0.7095" y="1" relative="1" as="geometry">
            <mxPoint x="-19" as="offset" />
          </mxGeometry>
        </mxCell>
        <mxCell id="bzOQo8LtT85Y9c2L1Ar0-25" style="rounded=0;orthogonalLoop=1;jettySize=auto;html=1;exitX=0;exitY=0.5;exitDx=0;exitDy=0;entryX=1;entryY=0.5;entryDx=0;entryDy=0;startArrow=diamondThin;startFill=1;endSize=12;startSize=12;endArrow=none;endFill=0;" edge="1" parent="1" source="bzOQo8LtT85Y9c2L1Ar0-20" target="bzOQo8LtT85Y9c2L1Ar0-16">
          <mxGeometry relative="1" as="geometry" />
        </mxCell>
        <mxCell id="bzOQo8LtT85Y9c2L1Ar0-27" value="&lt;font style=&quot;font-size: 17px;&quot;&gt;1..*&lt;/font&gt;" style="edgeLabel;html=1;align=center;verticalAlign=middle;resizable=0;points=[];" vertex="1" connectable="0" parent="bzOQo8LtT85Y9c2L1Ar0-25">
          <mxGeometry x="-0.6429" y="-2" relative="1" as="geometry">
            <mxPoint x="-5" y="19" as="offset" />
          </mxGeometry>
        </mxCell>
        <mxCell id="bzOQo8LtT85Y9c2L1Ar0-28" value="&lt;font style=&quot;font-size: 17px;&quot;&gt;1..*&lt;/font&gt;" style="edgeLabel;html=1;align=center;verticalAlign=middle;resizable=0;points=[];" vertex="1" connectable="0" parent="bzOQo8LtT85Y9c2L1Ar0-25">
          <mxGeometry x="0.6571" y="-4" relative="1" as="geometry">
            <mxPoint y="24" as="offset" />
          </mxGeometry>
        </mxCell>
        <mxCell id="bzOQo8LtT85Y9c2L1Ar0-62" style="rounded=0;orthogonalLoop=1;jettySize=auto;html=1;exitX=1;exitY=0.25;exitDx=0;exitDy=0;endArrow=diamondThin;endFill=0;endSize=12;" edge="1" parent="1" source="bzOQo8LtT85Y9c2L1Ar0-20">
          <mxGeometry relative="1" as="geometry">
            <mxPoint x="580" y="15" as="targetPoint" />
          </mxGeometry>
        </mxCell>
        <mxCell id="bzOQo8LtT85Y9c2L1Ar0-68" value="&lt;font style=&quot;font-size: 17px;&quot;&gt;1&lt;/font&gt;" style="edgeLabel;html=1;align=center;verticalAlign=middle;resizable=0;points=[];" vertex="1" connectable="0" parent="bzOQo8LtT85Y9c2L1Ar0-62">
          <mxGeometry x="-0.7017" y="-4" relative="1" as="geometry">
            <mxPoint x="-2" y="11" as="offset" />
          </mxGeometry>
        </mxCell>
        <mxCell id="bzOQo8LtT85Y9c2L1Ar0-69" value="&lt;font style=&quot;font-size: 17px;&quot;&gt;1&lt;/font&gt;" style="edgeLabel;html=1;align=center;verticalAlign=middle;resizable=0;points=[];" vertex="1" connectable="0" parent="bzOQo8LtT85Y9c2L1Ar0-62">
          <mxGeometry x="0.5447" y="1" relative="1" as="geometry">
            <mxPoint y="16" as="offset" />
          </mxGeometry>
        </mxCell>
        <mxCell id="bzOQo8LtT85Y9c2L1Ar0-20" value="用户" style="swimlane;fontStyle=0;childLayout=stackLayout;horizontal=1;startSize=26;fillColor=none;horizontalStack=0;resizeParent=1;resizeParentMax=0;resizeLast=0;collapsible=1;marginBottom=0;whiteSpace=wrap;html=1;" vertex="1" parent="1">
          <mxGeometry x="260" width="140" height="61" as="geometry" />
        </mxCell>
        <mxCell id="bzOQo8LtT85Y9c2L1Ar0-29" value="角色" style="swimlane;fontStyle=1;align=center;verticalAlign=top;childLayout=stackLayout;horizontal=1;startSize=26;horizontalStack=0;resizeParent=1;resizeParentMax=0;resizeLast=0;collapsible=1;marginBottom=0;whiteSpace=wrap;html=1;" vertex="1" parent="1">
          <mxGeometry x="20" y="260" width="190" height="52" as="geometry" />
        </mxCell>
        <mxCell id="bzOQo8LtT85Y9c2L1Ar0-32" value="fk:empId" style="text;strokeColor=none;fillColor=none;align=left;verticalAlign=top;spacingLeft=4;spacingRight=4;overflow=hidden;rotatable=0;points=[[0,0.5],[1,0.5]];portConstraint=eastwest;whiteSpace=wrap;html=1;" vertex="1" parent="bzOQo8LtT85Y9c2L1Ar0-29">
          <mxGeometry y="26" width="190" height="26" as="geometry" />
        </mxCell>
        <mxCell id="bzOQo8LtT85Y9c2L1Ar0-55" style="rounded=0;orthogonalLoop=1;jettySize=auto;html=1;endArrow=diamondThin;endFill=0;startSize=17;endSize=17;" edge="1" parent="1">
          <mxGeometry relative="1" as="geometry">
            <mxPoint x="120" y="380" as="sourcePoint" />
            <mxPoint x="120" y="310" as="targetPoint" />
          </mxGeometry>
        </mxCell>
        <mxCell id="bzOQo8LtT85Y9c2L1Ar0-58" value="&lt;font style=&quot;font-size: 17px;&quot;&gt;0..*&lt;/font&gt;" style="edgeLabel;html=1;align=center;verticalAlign=middle;resizable=0;points=[];" vertex="1" connectable="0" parent="bzOQo8LtT85Y9c2L1Ar0-55">
          <mxGeometry x="0.6262" y="-2" relative="1" as="geometry">
            <mxPoint x="19" as="offset" />
          </mxGeometry>
        </mxCell>
        <mxCell id="bzOQo8LtT85Y9c2L1Ar0-60" value="&lt;font style=&quot;font-size: 17px;&quot;&gt;0..*&lt;/font&gt;" style="edgeLabel;html=1;align=center;verticalAlign=middle;resizable=0;points=[];" vertex="1" connectable="0" parent="bzOQo8LtT85Y9c2L1Ar0-55">
          <mxGeometry x="-0.6139" y="-3" relative="1" as="geometry">
            <mxPoint x="22" as="offset" />
          </mxGeometry>
        </mxCell>
        <mxCell id="bzOQo8LtT85Y9c2L1Ar0-33" value="resource" style="swimlane;fontStyle=1;align=center;verticalAlign=top;childLayout=stackLayout;horizontal=1;startSize=26;horizontalStack=0;resizeParent=1;resizeParentMax=0;resizeLast=0;collapsible=1;marginBottom=0;whiteSpace=wrap;html=1;" vertex="1" parent="1">
          <mxGeometry x="20" y="380" width="360" height="52" as="geometry" />
        </mxCell>
        <mxCell id="bzOQo8LtT85Y9c2L1Ar0-34" value="id" style="text;strokeColor=none;fillColor=none;align=left;verticalAlign=top;spacingLeft=4;spacingRight=4;overflow=hidden;rotatable=0;points=[[0,0.5],[1,0.5]];portConstraint=eastwest;whiteSpace=wrap;html=1;" vertex="1" parent="bzOQo8LtT85Y9c2L1Ar0-33">
          <mxGeometry y="26" width="360" height="26" as="geometry" />
        </mxCell>
        <mxCell id="bzOQo8LtT85Y9c2L1Ar0-45" value="权限角色" style="shape=umlFrame;whiteSpace=wrap;html=1;pointerEvents=0;strokeColor=none;" vertex="1" parent="1">
          <mxGeometry y="200" width="440" height="360" as="geometry" />
        </mxCell>
        <mxCell id="bzOQo8LtT85Y9c2L1Ar0-48" style="rounded=0;orthogonalLoop=1;jettySize=auto;html=1;entryX=0.5;entryY=1;entryDx=0;entryDy=0;endArrow=diamondThin;endFill=0;strokeWidth=1;endSize=17;edgeStyle=orthogonalEdgeStyle;" edge="1" parent="1" source="bzOQo8LtT85Y9c2L1Ar0-29" target="bzOQo8LtT85Y9c2L1Ar0-20">
          <mxGeometry relative="1" as="geometry" />
        </mxCell>
        <mxCell id="bzOQo8LtT85Y9c2L1Ar0-49" value="&lt;font style=&quot;font-size: 17px;&quot;&gt;0..*&lt;/font&gt;" style="edgeLabel;html=1;align=center;verticalAlign=middle;resizable=0;points=[];" vertex="1" connectable="0" parent="bzOQo8LtT85Y9c2L1Ar0-48">
          <mxGeometry x="0.5961" y="2" relative="1" as="geometry">
            <mxPoint y="25" as="offset" />
          </mxGeometry>
        </mxCell>
        <mxCell id="bzOQo8LtT85Y9c2L1Ar0-50" value="&lt;font style=&quot;font-size: 17px;&quot;&gt;0..*&lt;/font&gt;" style="edgeLabel;html=1;align=center;verticalAlign=middle;resizable=0;points=[];" vertex="1" connectable="0" parent="bzOQo8LtT85Y9c2L1Ar0-48">
          <mxGeometry x="-0.7147" y="2" relative="1" as="geometry">
            <mxPoint x="-3" y="23" as="offset" />
          </mxGeometry>
        </mxCell>
        <mxCell id="bzOQo8LtT85Y9c2L1Ar0-53" style="rounded=0;orthogonalLoop=1;jettySize=auto;html=1;exitX=0.5;exitY=0;exitDx=0;exitDy=0;endArrow=diamondThin;endFill=0;endSize=17;" edge="1" parent="1" source="bzOQo8LtT85Y9c2L1Ar0-51" target="bzOQo8LtT85Y9c2L1Ar0-33">
          <mxGeometry relative="1" as="geometry" />
        </mxCell>
        <mxCell id="bzOQo8LtT85Y9c2L1Ar0-56" value="&lt;font style=&quot;font-size: 17px;&quot;&gt;0..*&lt;/font&gt;" style="edgeLabel;html=1;align=center;verticalAlign=middle;resizable=0;points=[];" vertex="1" connectable="0" parent="bzOQo8LtT85Y9c2L1Ar0-53">
          <mxGeometry x="0.8311" y="3" relative="1" as="geometry">
            <mxPoint x="-15" y="20" as="offset" />
          </mxGeometry>
        </mxCell>
        <mxCell id="bzOQo8LtT85Y9c2L1Ar0-57" value="&lt;font style=&quot;font-size: 15px;&quot;&gt;0..1&lt;/font&gt;" style="edgeLabel;html=1;align=center;verticalAlign=middle;resizable=0;points=[];" vertex="1" connectable="0" parent="bzOQo8LtT85Y9c2L1Ar0-53">
          <mxGeometry x="-0.7142" y="3" relative="1" as="geometry">
            <mxPoint x="-18" y="-7" as="offset" />
          </mxGeometry>
        </mxCell>
        <mxCell id="bzOQo8LtT85Y9c2L1Ar0-51" value="资源类别" style="swimlane;fontStyle=1;align=center;verticalAlign=top;childLayout=stackLayout;horizontal=1;startSize=26;horizontalStack=0;resizeParent=1;resizeParentMax=0;resizeLast=0;collapsible=1;marginBottom=0;whiteSpace=wrap;html=1;" vertex="1" parent="1">
          <mxGeometry x="20" y="480" width="160" height="52" as="geometry">
            <mxRectangle x="760" y="-120" width="90" height="30" as="alternateBounds" />
          </mxGeometry>
        </mxCell>
        <mxCell id="bzOQo8LtT85Y9c2L1Ar0-52" value="id" style="text;strokeColor=none;fillColor=none;align=left;verticalAlign=top;spacingLeft=4;spacingRight=4;overflow=hidden;rotatable=0;points=[[0,0.5],[1,0.5]];portConstraint=eastwest;whiteSpace=wrap;html=1;" vertex="1" parent="bzOQo8LtT85Y9c2L1Ar0-51">
          <mxGeometry y="26" width="160" height="26" as="geometry" />
        </mxCell>
        <mxCell id="bzOQo8LtT85Y9c2L1Ar0-91" style="edgeStyle=orthogonalEdgeStyle;rounded=0;orthogonalLoop=1;jettySize=auto;html=1;exitX=1;exitY=0.25;exitDx=0;exitDy=0;endArrow=block;endFill=0;endSize=12;entryX=0;entryY=0.5;entryDx=0;entryDy=0;" edge="1" parent="1" source="bzOQo8LtT85Y9c2L1Ar0-77" target="bzOQo8LtT85Y9c2L1Ar0-34">
          <mxGeometry relative="1" as="geometry">
            <Array as="points">
              <mxPoint x="-40" y="-207" />
              <mxPoint x="-40" y="420" />
            </Array>
          </mxGeometry>
        </mxCell>
        <mxCell id="bzOQo8LtT85Y9c2L1Ar0-77" value="菜单" style="swimlane;fontStyle=1;align=center;verticalAlign=top;childLayout=stackLayout;horizontal=1;startSize=26;horizontalStack=0;resizeParent=1;resizeParentMax=0;resizeLast=0;collapsible=1;marginBottom=0;whiteSpace=wrap;html=1;" vertex="1" parent="1">
          <mxGeometry x="-190" y="-220" width="80" height="52" as="geometry" />
        </mxCell>
        <mxCell id="bzOQo8LtT85Y9c2L1Ar0-78" value="id" style="text;strokeColor=none;fillColor=none;align=left;verticalAlign=top;spacingLeft=4;spacingRight=4;overflow=hidden;rotatable=0;points=[[0,0.5],[1,0.5]];portConstraint=eastwest;whiteSpace=wrap;html=1;" vertex="1" parent="bzOQo8LtT85Y9c2L1Ar0-77">
          <mxGeometry y="26" width="80" height="26" as="geometry" />
        </mxCell>
        <mxCell id="bzOQo8LtT85Y9c2L1Ar0-79" value="平台" style="shape=umlFrame;whiteSpace=wrap;html=1;pointerEvents=0;" vertex="1" parent="1">
          <mxGeometry x="-400" y="-280" width="320" height="440" as="geometry" />
        </mxCell>
        <mxCell id="bzOQo8LtT85Y9c2L1Ar0-85" style="edgeStyle=orthogonalEdgeStyle;rounded=0;orthogonalLoop=1;jettySize=auto;html=1;exitX=1;exitY=0.25;exitDx=0;exitDy=0;entryX=-0.003;entryY=-0.108;entryDx=0;entryDy=0;endArrow=block;endFill=0;endSize=12;entryPerimeter=0;" edge="1" parent="1" source="bzOQo8LtT85Y9c2L1Ar0-81" target="bzOQo8LtT85Y9c2L1Ar0-34">
          <mxGeometry relative="1" as="geometry">
            <Array as="points">
              <mxPoint x="-40" y="83" />
              <mxPoint x="-40" y="403" />
            </Array>
          </mxGeometry>
        </mxCell>
        <mxCell id="bzOQo8LtT85Y9c2L1Ar0-81" value="接口" style="swimlane;fontStyle=1;align=center;verticalAlign=top;childLayout=stackLayout;horizontal=1;startSize=26;horizontalStack=0;resizeParent=1;resizeParentMax=0;resizeLast=0;collapsible=1;marginBottom=0;whiteSpace=wrap;html=1;" vertex="1" parent="1">
          <mxGeometry x="-200" y="70" width="90" height="52" as="geometry" />
        </mxCell>
        <mxCell id="bzOQo8LtT85Y9c2L1Ar0-82" value="id" style="text;strokeColor=none;fillColor=none;align=left;verticalAlign=top;spacingLeft=4;spacingRight=4;overflow=hidden;rotatable=0;points=[[0,0.5],[1,0.5]];portConstraint=eastwest;whiteSpace=wrap;html=1;" vertex="1" parent="bzOQo8LtT85Y9c2L1Ar0-81">
          <mxGeometry y="26" width="90" height="26" as="geometry" />
        </mxCell>
        <mxCell id="bzOQo8LtT85Y9c2L1Ar0-86" style="rounded=0;orthogonalLoop=1;jettySize=auto;html=1;exitX=0.5;exitY=0;exitDx=0;exitDy=0;entryX=0.5;entryY=1.115;entryDx=0;entryDy=0;entryPerimeter=0;endArrow=diamondThin;endFill=0;endSize=12;" edge="1" parent="1" source="bzOQo8LtT85Y9c2L1Ar0-83" target="bzOQo8LtT85Y9c2L1Ar0-78">
          <mxGeometry relative="1" as="geometry" />
        </mxCell>
        <mxCell id="bzOQo8LtT85Y9c2L1Ar0-88" value="&lt;font style=&quot;font-size: 15px;&quot;&gt;1..1&lt;/font&gt;" style="edgeLabel;html=1;align=center;verticalAlign=middle;resizable=0;points=[];" vertex="1" connectable="0" parent="bzOQo8LtT85Y9c2L1Ar0-86">
          <mxGeometry x="-0.5181" y="1" relative="1" as="geometry">
            <mxPoint x="16" y="3" as="offset" />
          </mxGeometry>
        </mxCell>
        <mxCell id="bzOQo8LtT85Y9c2L1Ar0-90" value="&lt;font style=&quot;font-size: 17px;&quot;&gt;0..*&lt;/font&gt;" style="edgeLabel;html=1;align=center;verticalAlign=middle;resizable=0;points=[];" vertex="1" connectable="0" parent="bzOQo8LtT85Y9c2L1Ar0-86">
          <mxGeometry x="0.5769" relative="1" as="geometry">
            <mxPoint x="20" y="3" as="offset" />
          </mxGeometry>
        </mxCell>
        <mxCell id="bzOQo8LtT85Y9c2L1Ar0-92" style="rounded=0;orthogonalLoop=1;jettySize=auto;html=1;exitX=1;exitY=0.25;exitDx=0;exitDy=0;entryX=0;entryY=0.25;entryDx=0;entryDy=0;endArrow=block;endFill=0;endSize=12;edgeStyle=orthogonalEdgeStyle;" edge="1" parent="1" source="bzOQo8LtT85Y9c2L1Ar0-83" target="bzOQo8LtT85Y9c2L1Ar0-33">
          <mxGeometry relative="1" as="geometry">
            <Array as="points">
              <mxPoint x="-40" y="-27" />
              <mxPoint x="-40" y="393" />
            </Array>
          </mxGeometry>
        </mxCell>
        <mxCell id="bzOQo8LtT85Y9c2L1Ar0-83" value="按钮" style="swimlane;fontStyle=1;align=center;verticalAlign=top;childLayout=stackLayout;horizontal=1;startSize=26;horizontalStack=0;resizeParent=1;resizeParentMax=0;resizeLast=0;collapsible=1;marginBottom=0;whiteSpace=wrap;html=1;" vertex="1" parent="1">
          <mxGeometry x="-190" y="-40" width="80" height="50" as="geometry" />
        </mxCell>
        <mxCell id="bzOQo8LtT85Y9c2L1Ar0-84" value="id" style="text;strokeColor=none;fillColor=none;align=left;verticalAlign=top;spacingLeft=4;spacingRight=4;overflow=hidden;rotatable=0;points=[[0,0.5],[1,0.5]];portConstraint=eastwest;whiteSpace=wrap;html=1;" vertex="1" parent="bzOQo8LtT85Y9c2L1Ar0-83">
          <mxGeometry y="26" width="80" height="24" as="geometry" />
        </mxCell>
        <mxCell id="bzOQo8LtT85Y9c2L1Ar0-95" style="edgeStyle=orthogonalEdgeStyle;rounded=0;orthogonalLoop=1;jettySize=auto;html=1;exitX=1;exitY=0.25;exitDx=0;exitDy=0;entryX=0.5;entryY=0;entryDx=0;entryDy=0;" edge="1" parent="1" source="0RFwIcLYO04Bj1ifUBIb-40" target="0RFwIcLYO04Bj1ifUBIb-40">
          <mxGeometry relative="1" as="geometry">
            <Array as="points">
              <mxPoint x="790" y="-159" />
              <mxPoint x="790" y="-240" />
              <mxPoint x="670" y="-240" />
            </Array>
          </mxGeometry>
        </mxCell>
      </root>
    </mxGraphModel>
  </diagram>
</mxfile>
